<svg width="9" height="14" viewBox="0 0 9 14" fill="none" xmlns="http://www.w3.org/2000/svg">
<path d="M8.60085 11.8546L3.29746 6.99347L8.60085 2.13239C8.7274 2.01639 8.82778 1.87869 8.89626 1.72714C8.96475 1.57559 9 1.41316 9 1.24912C9 1.08509 8.96475 0.922654 8.89626 0.771104C8.82778 0.619553 8.7274 0.48185 8.60085 0.365857C8.4743 0.249866 8.32407 0.157858 8.15873 0.0950832C7.99339 0.0323086 7.81618 0 7.63722 0C7.45826 0 7.28105 0.0323086 7.11571 0.0950832C6.95036 0.157858 6.80013 0.249866 6.67359 0.365857L0.399729 6.11647C0.273017 6.23238 0.172488 6.37005 0.103897 6.52161C0.035306 6.67318 0 6.83565 0 6.99973C0 7.16382 0.035306 7.32629 0.103897 7.47785C0.172488 7.62942 0.273017 7.76709 0.399729 7.883L6.67359 13.6336C6.80004 13.7498 6.95024 13.8419 7.11559 13.9048C7.28095 13.9676 7.4582 14 7.63722 14C7.81623 14 7.99349 13.9676 8.15884 13.9048C8.3242 13.8419 8.4744 13.7498 8.60085 13.6336C9.12025 13.145 9.13392 12.3432 8.60085 11.8546Z" fill="#6F7678"/>
</svg>
