<svg width="12" height="20" viewBox="0 0 12 20" fill="none" xmlns="http://www.w3.org/2000/svg">
<path d="M10.9996 0.00416133L8.40604 0C5.49227 0 3.60926 1.9319 3.60926 4.92203V7.19141H1.00156C0.776225 7.19141 0.59375 7.37409 0.59375 7.59943V10.8875C0.59375 11.1128 0.776433 11.2953 1.00156 11.2953H3.60926V19.5922C3.60926 19.8175 3.79174 20 4.01707 20H7.41938C7.64472 20 7.8272 19.8173 7.8272 19.5922V11.2953H10.8762C11.1015 11.2953 11.284 11.1128 11.284 10.8875L11.2853 7.59943C11.2853 7.49123 11.2422 7.38762 11.1658 7.31105C11.0895 7.23448 10.9854 7.19141 10.8772 7.19141H7.8272V5.26763C7.8272 4.34298 8.04754 3.87358 9.25204 3.87358L10.9992 3.87295C11.2243 3.87295 11.4068 3.69027 11.4068 3.46514V0.411972C11.4068 0.187052 11.2245 0.00457747 10.9996 0.00416133Z" fill="#353535"/>
</svg>
