<svg width="20" height="12" viewBox="0 0 20 12" fill="none" xmlns="http://www.w3.org/2000/svg">
<path d="M19.1721 9.50887C18.5766 8.79464 17.8759 8.18508 17.2129 7.5378C16.6147 6.95436 16.577 6.6159 17.0578 5.9425C17.5826 5.20755 18.147 4.50079 18.6765 3.76915C19.1709 3.08539 19.6762 2.4035 19.9363 1.58481C20.1013 1.06396 19.9554 0.833898 19.4212 0.742702C19.3292 0.726743 19.2341 0.725914 19.1404 0.725914L15.9716 0.722183C15.5813 0.71638 15.3655 0.886542 15.2275 1.23246C15.0412 1.70005 14.849 2.16722 14.6271 2.61843C14.1234 3.64147 13.5609 4.63032 12.7723 5.46766C12.5984 5.65234 12.406 5.88571 12.1154 5.78954C11.7519 5.6569 11.6448 5.05791 11.6508 4.85541L11.6477 1.19785C11.5772 0.675342 11.4613 0.442379 10.9425 0.34082L7.65081 0.341442C7.21141 0.341442 6.99109 0.51119 6.75647 0.78602C6.62113 0.944783 6.5803 1.04779 6.85844 1.10044C7.40479 1.20407 7.71257 1.55766 7.79423 2.10545C7.92522 2.98072 7.9161 3.85951 7.84066 4.73831C7.81848 4.9949 7.77433 5.25087 7.67257 5.49046C7.51339 5.86706 7.25639 5.94375 6.91876 5.71203C6.61304 5.50228 6.39832 5.20631 6.18816 4.90909C5.39869 3.79361 4.76882 2.59065 4.25523 1.32656C4.10683 0.961364 3.85086 0.740008 3.4639 0.733997C2.51318 0.718867 1.56226 0.71638 0.611552 0.734826C0.0395073 0.745604 -0.13107 1.02334 0.101893 1.54191C1.13738 3.84521 2.28996 6.08448 3.79448 8.12435C4.56695 9.17124 5.45383 10.0954 6.59957 10.7504C7.89807 11.4928 9.29585 11.7162 10.768 11.6474C11.4574 11.6151 11.6644 11.4358 11.6964 10.7487C11.7179 10.2786 11.7712 9.81126 12.0031 9.38886C12.2307 8.97434 12.5754 8.89537 12.9727 9.15321C13.1715 9.28233 13.3389 9.44669 13.4971 9.61996C13.8851 10.0444 14.2592 10.4818 14.6619 10.8919C15.167 11.4059 15.7653 11.7096 16.5177 11.6476L19.4302 11.6482C19.8994 11.6176 20.1427 11.0422 19.8733 10.5184C19.6841 10.1516 19.4358 9.82494 19.1721 9.50887Z" fill="#353535"/>
</svg>
